<svg xmlns="http://www.w3.org/2000/svg" width="40" height="40"><path d="M20 2a8 8 0 1 0 8 8 8.005 8.005 0 0 0-8-8m0 14.332A6.333 6.333 0 0 1 13.668 10 6.333 6.333 0 0 1 20 3.668 6.333 6.333 0 0 1 26.332 10 6.34 6.34 0 0 1 20 16.332m-5 20.336H6.668l.016-7.5c-.004-5.059 4.093-9.16 9.148-9.168h7.188a10 10 0 0 0-.77 1.668h-6.418a7.51 7.51 0 0 0-7.5 7.5V35H15ZM31.668 18.5a6.5 6.5 0 0 0-6.5 6.5c.008.715.133 1.422.375 2.09l-7.211 7.457v3.785h4.988l.04-.016L25 36.668V35h1.676l1.656-1.668v-1.664h1.676l.308-.313a6.502 6.502 0 0 0 7.207-9.21 6.51 6.51 0 0 0-5.855-3.645m0 11.5a5 5 0 0 1-2.04-.445l-.452.445h-2.508v3.332h-3.336v2.793l-.68.543H20v-1.512l7.363-7.652A4.95 4.95 0 0 1 26.668 25a5 5 0 1 1 5 5m.832-8.332a2.5 2.5 0 1 0 0 5 2.5 2.5 0 0 0 0-5m0 3.332a.834.834 0 0 1 0-1.668.834.834 0 0 1 0 1.668m0 0" style="stroke:none;fill-rule:nonzero;fill:#daa520;fill-opacity:1"/></svg>